<svg xmlns="http://www.w3.org/2000/svg" viewBox="0 0 128 128">
<rect x="20" y="24" width="20" height="20" rx="4" fill="#9C8ADE"/>
<rect x="44" y="24" width="20" height="20" rx="4" fill="#80DEEA"/>
<rect x="68" y="24" width="20" height="20" rx="4" fill="#4DC4A6"/>
<rect x="92" y="24" width="20" height="20" rx="4" fill="#FFD666"/>
<rect x="20" y="48" width="20" height="20" rx="4" fill="#80DEEA"/>
<rect x="44" y="48" width="20" height="20" rx="4" fill="#FFA552"/>
<rect x="68" y="48" width="20" height="20" rx="4" fill="#F48FB1"/>
<rect x="92" y="48" width="20" height="20" rx="4" fill="#9C8ADE"/>
<rect x="20" y="72" width="20" height="20" rx="4" fill="#4DC4A6"/>
<rect x="44" y="72" width="20" height="20" rx="4" fill="#F48FB1"/>
<rect x="68" y="72" width="20" height="20" rx="4" fill="#9C8ADE"/>
<rect x="92" y="72" width="20" height="20" rx="4" fill="#80DEEA"/>
</svg>